<svg width="12" height="13" viewBox="0 0 12 13" fill="none" xmlns="http://www.w3.org/2000/svg">
<path d="M7.09934 6.42057L11.772 1.74787C12.076 1.44393 12.076 0.952476 11.772 0.648567C11.468 0.344622 10.9766 0.344622 10.6727 0.648567L5.99992 5.32123L1.32737 0.648567C1.02328 0.344622 0.532013 0.344622 0.228068 0.648567C-0.0760226 0.952512 -0.0760226 1.44393 0.228068 1.74787L4.90058 6.42057L0.228104 11.0932C-0.0759862 11.3972 -0.0759862 11.8886 0.228104 12.1925C0.300202 12.2648 0.385875 12.3222 0.480202 12.3613C0.574529 12.4004 0.675651 12.4204 0.777756 12.4203C0.976742 12.4203 1.1758 12.3441 1.32741 12.1925L5.99992 7.51987L10.6727 12.1925C10.7448 12.2648 10.8304 12.3222 10.9248 12.3612C11.0191 12.4003 11.1202 12.4204 11.2223 12.4203C11.4213 12.4203 11.6204 12.3441 11.772 12.1925C12.076 11.8886 12.076 11.3972 11.772 11.0932L7.09934 6.42057Z" fill="#181818"/>
</svg>
