<svg width="30" height="35" viewBox="0 0 30 35" fill="none" xmlns="http://www.w3.org/2000/svg">
<path d="M14.9032 15.2853C19.1241 15.2853 22.5459 11.8636 22.5459 7.64267C22.5459 3.42174 19.1241 0 14.9032 0C10.6823 0 7.26053 3.42174 7.26053 7.64267C7.26053 11.8636 10.6823 15.2853 14.9032 15.2853Z" fill="white"/>
<path d="M15.8108 22.1637H13.9956L13.0474 29.2436L14.9032 31.5633L16.759 29.2436L15.8108 22.1637ZM13.9637 19.8709H15.8427L16.2248 17.5781H13.5816L13.9637 19.8709Z" fill="white"/>
<path d="M10.7099 29.425L11.8334 21.0359L11.2571 17.5781H9.1712C4.1061 17.5781 0 21.6842 0 26.7493V33.3985C0 34.0316 0.513281 34.5449 1.1464 34.5449H14.3522L10.9509 30.2932C10.8542 30.1723 10.7829 30.033 10.7415 29.8838C10.7001 29.7345 10.6893 29.5785 10.7099 29.425Z" fill="white"/>
<path d="M19.2901 29.4555L18.1666 21.0665L18.7429 17.6087H20.8288C25.8939 17.6087 30 21.7148 30 26.7799V33.429C30 34.0621 29.4867 34.5754 28.8536 34.5754H15.6478L19.0491 30.3238C19.1458 30.2029 19.2171 30.0636 19.2585 29.9143C19.2999 29.7651 19.3107 29.609 19.2901 29.4555Z" fill="white"/>
</svg>
