<svg width="30" height="30" viewBox="0 0 30 30" fill="none" xmlns="http://www.w3.org/2000/svg">
<path d="M7 1V2H5V1C5 0.45 5.45 0 6 0C6.55 0 7 0.45 7 1ZM15 0C14.45 0 14 0.45 14 1V2H16V1C16 0.45 15.55 0 15 0ZM24 0C23.45 0 23 0.45 23 1V2H25V1C25 0.45 24.55 0 24 0ZM27 2H25V3C25 3.55 24.55 4 24 4C23.45 4 23 3.55 23 3V2H16V3C16 3.55 15.55 4 15 4C14.45 4 14 3.55 14 3V2H7V3C7 3.55 6.55 4 6 4C5.45 4 5 3.55 5 3V2H3C1.35 2 0 3.35 0 5V8H30V5C30 3.35 28.65 2 27 2ZM30 10V27C30 28.654 28.654 30 27 30H3C1.346 30 0 28.654 0 27V10H30ZM18 21.286L21 17.858H16.713L15 14L13.287 17.858H9L12 21.286L10.713 26L15 23.43L19.287 26L18 21.286Z" fill="white"/>
</svg>
