<svg width="30" height="30" viewBox="0 0 30 30" fill="none" xmlns="http://www.w3.org/2000/svg">
<path d="M25.6066 4.39459C19.7447 -1.46442 10.257 -1.4653 4.39424 4.39459C-0.319589 9.10605 -1.21034 16.1116 1.57649 21.6907L0.0314788 28.4834C-0.169341 29.3662 0.622321 30.1579 1.50597 29.9571L8.30198 28.4129C18.1833 33.3439 30 26.205 30 14.9956C30 10.9912 28.4397 7.22632 25.6066 4.39459ZM18.1294 18.7289H8.74252C8.06209 18.7289 7.5105 18.1776 7.5105 17.4975C7.5105 16.8174 8.06209 16.2661 8.74252 16.2661H18.1294C18.8098 16.2661 19.3614 16.8174 19.3614 17.4975C19.3614 18.1776 18.8098 18.7289 18.1294 18.7289ZM21.2583 13.7251H8.74252C8.06209 13.7251 7.5105 13.1738 7.5105 12.4937C7.5105 11.8136 8.06209 11.2623 8.74252 11.2623H21.2583C21.9388 11.2623 22.4904 11.8136 22.4904 12.4937C22.4904 13.1738 21.9387 13.7251 21.2583 13.7251Z" fill="white"/>
</svg>
