<svg width="30" height="34" viewBox="0 0 30 34" fill="none" xmlns="http://www.w3.org/2000/svg">
<path fill-rule="evenodd" clip-rule="evenodd" d="M24.6989 17.7516L25.2646 19.1137C25.4845 19.2244 25.6981 19.3474 25.9026 19.4827L27.3662 19.2905C27.5545 19.2662 27.7458 19.2887 27.9233 19.356C28.1009 19.4233 28.259 19.5334 28.3839 19.6764C29.0715 20.4639 29.5994 21.3777 29.9381 22.3667C30.0627 22.7326 29.9965 23.1354 29.7629 23.4413L28.8651 24.6128C28.8789 24.8588 28.8789 25.1063 28.8651 25.3492L29.7629 26.5222C29.8781 26.6731 29.9544 26.8501 29.9849 27.0375C30.0155 27.225 29.9994 27.417 29.9381 27.5968C29.5994 28.5858 29.0715 29.4996 28.3839 30.2871C28.259 30.4301 28.1009 30.5402 27.9233 30.6075C27.7458 30.6748 27.5545 30.6973 27.3662 30.673L25.9026 30.4808C25.697 30.6156 25.484 30.7388 25.2646 30.8498L24.6989 32.2118C24.6261 32.3873 24.5111 32.5422 24.3642 32.6626C24.2172 32.783 24.0428 32.8653 23.8564 32.9021C22.83 33.1035 21.7743 33.1035 20.7479 32.9021C20.5615 32.8653 20.3871 32.783 20.2402 32.6626C20.0932 32.5422 19.9783 32.3873 19.9055 32.2118L19.3397 30.8498C19.12 30.7394 18.9069 30.6162 18.7017 30.4808L17.2382 30.673C17.0499 30.6973 16.8585 30.6748 16.681 30.6075C16.5035 30.5402 16.3453 30.4301 16.2205 30.2871C15.5328 29.4996 15.0049 28.5858 14.6662 27.5968C14.6049 27.417 14.5888 27.225 14.6194 27.0375C14.65 26.8501 14.7262 26.6731 14.8415 26.5222L15.7393 25.3507C15.7254 25.1054 15.7254 24.8596 15.7393 24.6143L14.8415 23.4413C14.7262 23.2904 14.65 23.1134 14.6194 22.926C14.5888 22.7385 14.6049 22.5465 14.6662 22.3667C15.0049 21.3777 15.5328 20.4639 16.2205 19.6764C16.3453 19.5334 16.5035 19.4233 16.681 19.356C16.8585 19.2887 17.0499 19.2662 17.2382 19.2905L18.7017 19.4827C18.9077 19.3474 19.1214 19.2244 19.3397 19.1137L19.9055 17.7516C19.9783 17.5762 20.0932 17.4213 20.2402 17.3009C20.3871 17.1805 20.5615 17.0982 20.7479 17.0614C21.7743 16.86 22.83 16.86 23.8564 17.0614C24.0428 17.0982 24.2172 17.1805 24.3642 17.3009C24.5111 17.4213 24.6261 17.5762 24.6989 17.7516ZM22.3022 23.0601C21.7925 23.0601 21.3037 23.2625 20.9433 23.6229C20.583 23.9833 20.3805 24.4721 20.3805 24.9817C20.3805 25.4914 20.583 25.9802 20.9433 26.3406C21.3037 26.701 21.7925 26.9034 22.3022 26.9034C22.8118 26.9034 23.3006 26.701 23.661 26.3406C24.0214 25.9802 24.2238 25.4914 24.2238 24.9817C24.2238 24.4721 24.0214 23.9833 23.661 23.6229C23.3006 23.2625 22.8118 23.0601 22.3022 23.0601Z" fill="white"/>
<path fill-rule="evenodd" clip-rule="evenodd" d="M18.6049 33.0528H4.22768C3.10643 33.0528 2.0311 32.6074 1.23826 31.8145C0.445415 31.0217 0 29.9463 0 28.8251V4.22768C0 3.10643 0.445415 2.0311 1.23826 1.23826C2.0311 0.445415 3.10643 0 4.22768 0H17.4257C18.1406 0 18.8247 0.28287 19.329 0.788655L26.1148 7.57447C26.619 8.07871 26.9034 8.76283 26.9034 9.47615V17.8008L26.4115 17.8654L26.1194 17.1613C25.9492 16.752 25.6805 16.391 25.3372 16.1105C24.9939 15.8299 24.5866 15.6385 24.1516 15.5533C22.9303 15.3134 21.674 15.3134 20.4528 15.5533C20.0177 15.6385 19.6104 15.8299 19.2672 16.1105C18.9239 16.391 18.6552 16.752 18.485 17.1613L18.1929 17.8654L17.438 17.767C16.9986 17.7093 16.5517 17.7611 16.137 17.9177C15.7224 18.0743 15.3529 18.331 15.0613 18.6648C14.2431 19.6034 13.6149 20.692 13.2119 21.8702C12.9198 22.7203 13.0735 23.6627 13.6208 24.376L14.0851 24.9817L13.6208 25.5875C13.3513 25.939 13.1729 26.3518 13.1015 26.789C13.0302 27.2262 13.0681 27.6743 13.2119 28.0933C13.6149 29.2715 14.2431 30.3601 15.0613 31.2987C15.6532 31.9766 16.5448 32.3133 17.438 32.1965L18.1929 32.0981L18.485 32.8022C18.5219 32.8883 18.5618 32.9713 18.6049 33.0528ZM17.2951 2.06003V8.07103C17.2951 8.47875 17.457 8.86978 17.7453 9.15809C18.0336 9.4464 18.4247 9.60836 18.8324 9.60836H24.8434C24.7668 9.44095 24.6611 9.28844 24.5313 9.15792L17.7455 2.37211C17.6154 2.24179 17.4628 2.13607 17.2951 2.06003ZM5.76502 9.96349H12.683C12.9888 9.96349 13.2821 9.84201 13.4983 9.62578C13.7146 9.40955 13.836 9.11628 13.836 8.81049C13.836 8.50469 13.7146 8.21142 13.4983 7.99519C13.2821 7.77896 12.9888 7.65748 12.683 7.65748H5.76502C5.45922 7.65748 5.16595 7.77896 4.94972 7.99519C4.73349 8.21142 4.61202 8.50469 4.61202 8.81049C4.61202 9.11628 4.73349 9.40955 4.94972 9.62578C5.16595 9.84201 5.45922 9.96349 5.76502 9.96349ZM5.76502 26.1348H11.1457C11.4515 26.1348 11.7448 26.0133 11.961 25.797C12.1772 25.5808 12.2987 25.2875 12.2987 24.9817C12.2987 24.676 12.1772 24.3827 11.961 24.1665C11.7448 23.9502 11.4515 23.8287 11.1457 23.8287H5.76502C5.45922 23.8287 5.16595 23.9502 4.94972 24.1665C4.73349 24.3827 4.61202 24.676 4.61202 24.9817C4.61202 25.2875 4.73349 25.5808 4.94972 25.797C5.16595 26.0133 5.45922 26.1348 5.76502 26.1348ZM5.76502 20.7541H11.1457C11.4515 20.7541 11.7448 20.6326 11.961 20.4164C12.1772 20.2001 12.2987 19.9069 12.2987 19.6011C12.2987 19.2953 12.1772 19.002 11.961 18.7858C11.7448 18.5695 11.4515 18.4481 11.1457 18.4481H5.76502C5.45922 18.4481 5.16595 18.5695 4.94972 18.7858C4.73349 19.002 4.61202 19.2953 4.61202 19.6011C4.61202 19.9069 4.73349 20.2001 4.94972 20.4164C5.16595 20.6326 5.45922 20.7541 5.76502 20.7541ZM5.76502 15.3734H16.5264C16.8322 15.3734 17.1255 15.2519 17.3417 15.0357C17.5579 14.8194 17.6794 14.5262 17.6794 14.2204C17.6794 13.9146 17.5579 13.6213 17.3417 13.4051C17.1255 13.1889 16.8322 13.0674 16.5264 13.0674H5.76502C5.45922 13.0674 5.16595 13.1889 4.94972 13.4051C4.73349 13.6213 4.61202 13.9146 4.61202 14.2204C4.61202 14.5262 4.73349 14.8194 4.94972 15.0357C5.16595 15.2519 5.45922 15.3734 5.76502 15.3734Z" fill="white"/>
</svg>
