<svg width="16" height="16" viewBox="0 0 16 16" fill="none" xmlns="http://www.w3.org/2000/svg">
<path d="M12.7333 7.37568L5.15476 0.255608C4.97948 0.090796 4.74549 0 4.496 0C4.2465 0 4.01251 0.090796 3.83723 0.255608L3.27912 0.779831C2.91596 1.12142 2.91596 1.6766 3.27912 2.01767L9.64302 7.99668L3.27206 13.9823C3.09678 14.1471 3 14.3668 3 14.6011C3 14.8357 3.09678 15.0554 3.27206 15.2203L3.83017 15.7444C4.00559 15.9092 4.23944 16 4.48893 16C4.73843 16 4.97242 15.9092 5.1477 15.7444L12.7333 8.61782C12.909 8.45248 13.0055 8.23174 13.005 7.99707C13.0055 7.7615 12.909 7.54088 12.7333 7.37568Z" fill="#181818"/>
</svg>
