<svg width="31" height="31" viewBox="0 0 31 31" fill="none" xmlns="http://www.w3.org/2000/svg">
<path d="M30.0836 18.7798L27.2519 16.5655C27.2878 16.224 27.3186 15.8248 27.3186 15.4025C27.3186 14.9802 27.2891 14.581 27.2519 14.2395L30.0862 12.024C30.6125 11.6081 30.7562 10.8699 30.4212 10.2551L27.4765 5.16026C27.162 4.58521 26.4727 4.28995 25.7731 4.54796L22.4318 5.88935C21.7912 5.42724 21.1199 5.03703 20.4254 4.7251L19.9171 1.18097C19.8336 0.508324 19.2483 0 18.5564 0H12.6517C11.9598 0 11.3758 0.508324 11.2936 1.17069L10.784 4.72769C10.1113 5.03065 9.4503 5.41574 8.7815 5.89194L5.43119 4.5467C4.80342 4.30409 4.05249 4.57618 3.74056 5.14871L0.792067 10.2499C0.444218 10.8379 0.587967 11.6016 1.12583 12.0278L3.95754 14.2421C3.91259 14.6747 3.89081 15.0508 3.89081 15.4038C3.89081 15.7568 3.91265 16.1329 3.95754 16.5668L1.12325 18.7824C0.596932 19.1995 0.454447 19.9376 0.789479 20.5512L3.73418 25.646C4.0487 26.2198 4.73158 26.5176 5.43756 26.2583L8.77892 24.9169C9.41817 25.3778 10.0895 25.768 10.784 26.0812L11.2923 29.624C11.3757 30.2992 11.9598 30.8075 12.653 30.8075H18.5577C19.2496 30.8075 19.835 30.2992 19.9171 29.6368L20.4267 26.0812C21.0993 25.7769 21.7591 25.3931 22.4292 24.9156L25.7795 26.2608C25.9398 26.3236 26.1105 26.3558 26.2827 26.3558C26.7807 26.3558 27.239 26.0837 27.4701 25.6601L30.4276 20.5383C30.7562 19.9376 30.6124 19.1995 30.0836 18.7798ZM15.604 20.5383C12.7723 20.5383 10.4695 18.2355 10.4695 15.4038C10.4695 12.5721 12.7723 10.2692 15.604 10.2692C18.4357 10.2692 20.7386 12.5721 20.7386 15.4038C20.7386 18.2355 18.4357 20.5383 15.604 20.5383Z" fill="white"/>
</svg>
