<svg width="30" height="37" viewBox="0 0 30 37" fill="none" xmlns="http://www.w3.org/2000/svg">
<path d="M28.9886 3.32291C28.3354 2.6683 27.4666 2.30768 26.5423 2.30768H25.0081V3.84614C25.0081 5.54276 23.6293 6.92307 21.9345 6.92307H8.10377C6.409 6.92307 5.03023 5.54276 5.03023 3.84614V2.30768H3.49093C1.58646 2.30768 0.035387 3.85876 0.0332331 5.76537L2.41433e-06 33.3423C-0.00107451 34.2676 0.358156 35.1378 1.01131 35.7925C1.66462 36.4471 2.53339 36.8077 3.45769 36.8077H26.509C28.4135 36.8077 29.9646 35.2566 29.9667 33.35L30 5.77307C30.0011 4.84776 29.6418 3.9776 28.9886 3.32291ZM15.3918 13.7308H23.5805C24.2171 13.7308 24.7331 14.2474 24.7331 14.8846C24.7331 15.5218 24.2171 16.0385 23.5805 16.0385H15.3918C14.7553 16.0385 14.2393 15.5218 14.2393 14.8846C14.2393 14.2474 14.7553 13.7308 15.3918 13.7308ZM15.3918 21.4231H23.5805C24.2171 21.4231 24.7331 21.9397 24.7331 22.5769C24.7331 23.2142 24.2171 23.7308 23.5805 23.7308H15.3918C14.7553 23.7308 14.2393 23.2142 14.2393 22.5769C14.2393 21.9397 14.7553 21.4231 15.3918 21.4231ZM15.3918 29.1154H23.6135C24.25 29.1154 24.766 29.632 24.766 30.2692C24.766 30.9065 24.25 31.4231 23.6135 31.4231H15.3918C14.7553 31.4231 14.2393 30.9065 14.2393 30.2692C14.2393 29.632 14.7553 29.1154 15.3918 29.1154ZM5.57162 13.7763C6.02177 13.3257 6.75146 13.3257 7.20162 13.7763L7.82831 14.4038L10.4863 11.7428C10.9365 11.2923 11.6662 11.2922 12.1162 11.7428C12.5663 12.1934 12.5663 12.924 12.1162 13.3746L8.64323 16.8514C8.53626 16.9585 8.40922 17.0435 8.26938 17.1015C8.12953 17.1595 7.97962 17.1893 7.82823 17.1893C7.67684 17.1893 7.52693 17.1595 7.38709 17.1015C7.24724 17.0435 7.1202 16.9585 7.01323 16.8514L5.57154 15.408C5.12146 14.9575 5.12146 14.2268 5.57162 13.7763ZM5.57162 22.0561C6.02177 21.6055 6.75146 21.6055 7.20162 22.0561L7.82831 22.6835L10.4863 20.0225C10.9364 19.572 11.6662 19.572 12.1162 20.0225C12.5663 20.4731 12.5663 21.2037 12.1162 21.6543L8.64323 25.1312C8.53625 25.2383 8.40921 25.3232 8.26937 25.3812C8.12952 25.4392 7.97962 25.469 7.82823 25.469C7.67685 25.469 7.52694 25.4392 7.3871 25.3812C7.24725 25.3232 7.12021 25.2383 7.01323 25.1312L5.57154 23.6878C5.12146 23.2372 5.12146 22.5067 5.57162 22.0561ZM5.57162 29.7484C6.02177 29.2978 6.75146 29.2978 7.20162 29.7484L7.82831 30.3758L10.4863 27.7148C10.9364 27.2643 11.6662 27.2643 12.1162 27.7148C12.5663 28.1654 12.5663 28.896 12.1162 29.3466L8.64323 32.8235C8.53625 32.9306 8.40921 33.0156 8.26937 33.0735C8.12952 33.1315 7.97962 33.1614 7.82823 33.1614C7.67685 33.1614 7.52694 33.1315 7.3871 33.0735C7.24725 33.0156 7.12021 32.9306 7.01323 32.8235L5.57154 31.3801C5.12146 30.9295 5.12146 30.199 5.57162 29.7484Z" fill="white"/>
<path d="M7.33546 3.84614C7.33546 4.27099 7.67946 4.61537 8.10385 4.61537H21.9346C22.359 4.61537 22.703 4.27099 22.703 3.84614V0.76922C22.703 0.344374 22.359 -1.04904e-05 21.9346 -1.04904e-05H8.10385C7.67946 -1.04904e-05 7.33546 0.344374 7.33546 0.76922V3.84614Z" fill="white"/>
</svg>
